<mxfile host="app.diagrams.net" modified="2024-05-14T00:05:44.381Z" agent="Mozilla/5.0 (Windows NT 10.0; Win64; x64) AppleWebKit/537.36 (KHTML, like Gecko) Chrome/124.0.0.0 Safari/537.36" etag="pvVcX-iEX59ZCe0FC1dX" version="24.4.0" type="device">
  <diagram name="PÃ¡gina-1" id="KLYFZnmPPNLBPC9MtAc4">
    <mxGraphModel dx="2117" dy="653" grid="1" gridSize="10" guides="1" tooltips="1" connect="1" arrows="1" fold="1" page="1" pageScale="1" pageWidth="827" pageHeight="1169" math="0" shadow="0">
      <root>
        <mxCell id="0" />
        <mxCell id="1" parent="0" />
        <mxCell id="4Qd8jiQq4enubxvdJEgi-6" value="" style="edgeStyle=orthogonalEdgeStyle;rounded=0;orthogonalLoop=1;jettySize=auto;html=1;" edge="1" parent="1" source="4Qd8jiQq4enubxvdJEgi-1" target="4Qd8jiQq4enubxvdJEgi-3">
          <mxGeometry relative="1" as="geometry" />
        </mxCell>
        <mxCell id="4Qd8jiQq4enubxvdJEgi-1" value="Algoritmo Practico 2 ejer 14" style="ellipse;whiteSpace=wrap;html=1;" vertex="1" parent="1">
          <mxGeometry x="331" y="50" width="166" height="80" as="geometry" />
        </mxCell>
        <mxCell id="4Qd8jiQq4enubxvdJEgi-7" value="" style="edgeStyle=orthogonalEdgeStyle;rounded=0;orthogonalLoop=1;jettySize=auto;html=1;" edge="1" parent="1" source="4Qd8jiQq4enubxvdJEgi-2" target="4Qd8jiQq4enubxvdJEgi-4">
          <mxGeometry relative="1" as="geometry" />
        </mxCell>
        <mxCell id="4Qd8jiQq4enubxvdJEgi-2" value="entrada n" style="rounded=0;whiteSpace=wrap;html=1;" vertex="1" parent="1">
          <mxGeometry x="354" y="150" width="120" height="60" as="geometry" />
        </mxCell>
        <mxCell id="4Qd8jiQq4enubxvdJEgi-3" value="definir string word1 = &quot;&quot;" style="rounded=0;whiteSpace=wrap;html=1;" vertex="1" parent="1">
          <mxGeometry x="341" y="230" width="146" height="60" as="geometry" />
        </mxCell>
        <mxCell id="4Qd8jiQq4enubxvdJEgi-8" value="" style="edgeStyle=orthogonalEdgeStyle;rounded=0;orthogonalLoop=1;jettySize=auto;html=1;" edge="1" parent="1" source="4Qd8jiQq4enubxvdJEgi-4" target="4Qd8jiQq4enubxvdJEgi-5">
          <mxGeometry relative="1" as="geometry" />
        </mxCell>
        <mxCell id="4Qd8jiQq4enubxvdJEgi-4" value="definir&amp;nbsp;&lt;span style=&quot;background-color: rgb(255, 255, 255); color: rgb(59, 59, 59); font-family: Consolas, &amp;quot;Courier New&amp;quot;, monospace; font-size: 14px; white-space: pre;&quot;&gt;string word2 &lt;/span&gt;&lt;span style=&quot;font-family: Consolas, &amp;quot;Courier New&amp;quot;, monospace; font-size: 14px; white-space: pre;&quot;&gt;=&lt;/span&gt;&lt;span style=&quot;background-color: rgb(255, 255, 255); color: rgb(59, 59, 59); font-family: Consolas, &amp;quot;Courier New&amp;quot;, monospace; font-size: 14px; white-space: pre;&quot;&gt; &lt;/span&gt;&lt;span style=&quot;font-family: Consolas, &amp;quot;Courier New&amp;quot;, monospace; font-size: 14px; white-space: pre; color: rgb(163, 21, 21);&quot;&gt;&quot;&quot;&lt;/span&gt;" style="rounded=0;whiteSpace=wrap;html=1;" vertex="1" parent="1">
          <mxGeometry x="316" y="310" width="196" height="60" as="geometry" />
        </mxCell>
        <mxCell id="4Qd8jiQq4enubxvdJEgi-11" value="" style="edgeStyle=orthogonalEdgeStyle;rounded=0;orthogonalLoop=1;jettySize=auto;html=1;" edge="1" parent="1" source="4Qd8jiQq4enubxvdJEgi-5" target="4Qd8jiQq4enubxvdJEgi-10">
          <mxGeometry relative="1" as="geometry" />
        </mxCell>
        <mxCell id="4Qd8jiQq4enubxvdJEgi-5" value="definir&amp;nbsp;&lt;span style=&quot;background-color: rgb(255, 255, 255); color: rgb(59, 59, 59); font-family: Consolas, &amp;quot;Courier New&amp;quot;, monospace; font-size: 14px; white-space: pre;&quot;&gt;n1 &lt;/span&gt;&lt;span style=&quot;font-family: Consolas, &amp;quot;Courier New&amp;quot;, monospace; font-size: 14px; white-space: pre;&quot;&gt;=&lt;/span&gt;&lt;span style=&quot;background-color: rgb(255, 255, 255); color: rgb(59, 59, 59); font-family: Consolas, &amp;quot;Courier New&amp;quot;, monospace; font-size: 14px; white-space: pre;&quot;&gt; &lt;/span&gt;&lt;span style=&quot;font-family: Consolas, &amp;quot;Courier New&amp;quot;, monospace; font-size: 14px; white-space: pre; color: rgb(121, 94, 38);&quot;&gt;to_string&lt;/span&gt;&lt;span style=&quot;background-color: rgb(255, 255, 255); color: rgb(59, 59, 59); font-family: Consolas, &amp;quot;Courier New&amp;quot;, monospace; font-size: 14px; white-space: pre;&quot;&gt;(n)&lt;/span&gt;" style="rounded=0;whiteSpace=wrap;html=1;" vertex="1" parent="1">
          <mxGeometry x="316" y="390" width="206" height="60" as="geometry" />
        </mxCell>
        <mxCell id="4Qd8jiQq4enubxvdJEgi-9" value="definir string result" style="rounded=0;whiteSpace=wrap;html=1;" vertex="1" parent="1">
          <mxGeometry x="354" y="470" width="120" height="60" as="geometry" />
        </mxCell>
        <mxCell id="4Qd8jiQq4enubxvdJEgi-35" value="" style="edgeStyle=orthogonalEdgeStyle;rounded=0;orthogonalLoop=1;jettySize=auto;html=1;" edge="1" parent="1" source="4Qd8jiQq4enubxvdJEgi-10" target="4Qd8jiQq4enubxvdJEgi-12">
          <mxGeometry relative="1" as="geometry" />
        </mxCell>
        <mxCell id="4Qd8jiQq4enubxvdJEgi-10" value="definir i = 0" style="rounded=0;whiteSpace=wrap;html=1;" vertex="1" parent="1">
          <mxGeometry x="354" y="555" width="120" height="60" as="geometry" />
        </mxCell>
        <mxCell id="4Qd8jiQq4enubxvdJEgi-20" style="edgeStyle=orthogonalEdgeStyle;rounded=0;orthogonalLoop=1;jettySize=auto;html=1;exitX=1;exitY=0.5;exitDx=0;exitDy=0;" edge="1" parent="1" source="4Qd8jiQq4enubxvdJEgi-12" target="4Qd8jiQq4enubxvdJEgi-13">
          <mxGeometry relative="1" as="geometry" />
        </mxCell>
        <mxCell id="4Qd8jiQq4enubxvdJEgi-48" value="V" style="edgeLabel;html=1;align=center;verticalAlign=middle;resizable=0;points=[];" vertex="1" connectable="0" parent="4Qd8jiQq4enubxvdJEgi-20">
          <mxGeometry x="0.1972" y="-2" relative="1" as="geometry">
            <mxPoint as="offset" />
          </mxGeometry>
        </mxCell>
        <mxCell id="4Qd8jiQq4enubxvdJEgi-21" style="edgeStyle=orthogonalEdgeStyle;rounded=0;orthogonalLoop=1;jettySize=auto;html=1;exitX=0;exitY=0.5;exitDx=0;exitDy=0;" edge="1" parent="1" source="4Qd8jiQq4enubxvdJEgi-12" target="4Qd8jiQq4enubxvdJEgi-22">
          <mxGeometry relative="1" as="geometry">
            <mxPoint x="80" y="790" as="targetPoint" />
          </mxGeometry>
        </mxCell>
        <mxCell id="4Qd8jiQq4enubxvdJEgi-49" value="F" style="edgeLabel;html=1;align=center;verticalAlign=middle;resizable=0;points=[];" vertex="1" connectable="0" parent="4Qd8jiQq4enubxvdJEgi-21">
          <mxGeometry x="0.5679" relative="1" as="geometry">
            <mxPoint as="offset" />
          </mxGeometry>
        </mxCell>
        <mxCell id="4Qd8jiQq4enubxvdJEgi-12" value="&#xa;&lt;div style=&quot;color: #3b3b3b;background-color: #ffffff;font-family: Consolas, &#39;Courier New&#39;, monospace;font-weight: normal;font-size: 14px;line-height: 19px;white-space: pre;&quot;&gt;&lt;div&gt;&lt;span style=&quot;color: #3b3b3b;&quot;&gt;i &lt;/span&gt;&lt;span style=&quot;color: #000000;&quot;&gt;&amp;lt;&lt;/span&gt;&lt;span style=&quot;color: #3b3b3b;&quot;&gt; &lt;/span&gt;&lt;span style=&quot;color: #001080;&quot;&gt;n1&lt;/span&gt;&lt;span style=&quot;color: #3b3b3b;&quot;&gt;.&lt;/span&gt;&lt;span style=&quot;color: #795e26;&quot;&gt;size&lt;/span&gt;&lt;span style=&quot;color: #3b3b3b;&quot;&gt;()&lt;/span&gt;&lt;/div&gt;&lt;/div&gt;&#xa;&#xa;" style="rhombus;whiteSpace=wrap;html=1;" vertex="1" parent="1">
          <mxGeometry x="336" y="650" width="156" height="80" as="geometry" />
        </mxCell>
        <mxCell id="4Qd8jiQq4enubxvdJEgi-19" value="" style="edgeStyle=orthogonalEdgeStyle;rounded=0;orthogonalLoop=1;jettySize=auto;html=1;" edge="1" parent="1" source="4Qd8jiQq4enubxvdJEgi-13" target="4Qd8jiQq4enubxvdJEgi-14">
          <mxGeometry relative="1" as="geometry" />
        </mxCell>
        <mxCell id="4Qd8jiQq4enubxvdJEgi-13" value="definir char&amp;nbsp;&lt;span style=&quot;background-color: rgb(255, 255, 255); color: rgb(59, 59, 59); font-family: Consolas, &amp;quot;Courier New&amp;quot;, monospace; font-size: 14px; white-space: pre;&quot;&gt;caracter &lt;/span&gt;&lt;span style=&quot;font-family: Consolas, &amp;quot;Courier New&amp;quot;, monospace; font-size: 14px; white-space: pre;&quot;&gt;=&lt;/span&gt;&lt;span style=&quot;background-color: rgb(255, 255, 255); color: rgb(59, 59, 59); font-family: Consolas, &amp;quot;Courier New&amp;quot;, monospace; font-size: 14px; white-space: pre;&quot;&gt; &lt;/span&gt;&lt;span style=&quot;font-family: Consolas, &amp;quot;Courier New&amp;quot;, monospace; font-size: 14px; white-space: pre; color: rgb(0, 16, 128);&quot;&gt;n1&lt;/span&gt;&lt;span style=&quot;background-color: rgb(255, 255, 255); color: rgb(59, 59, 59); font-family: Consolas, &amp;quot;Courier New&amp;quot;, monospace; font-size: 14px; white-space: pre;&quot;&gt;[i]&lt;/span&gt;" style="rounded=0;whiteSpace=wrap;html=1;" vertex="1" parent="1">
          <mxGeometry x="474" y="750" width="200" height="60" as="geometry" />
        </mxCell>
        <mxCell id="4Qd8jiQq4enubxvdJEgi-17" style="edgeStyle=orthogonalEdgeStyle;rounded=0;orthogonalLoop=1;jettySize=auto;html=1;exitX=1;exitY=0.5;exitDx=0;exitDy=0;" edge="1" parent="1" source="4Qd8jiQq4enubxvdJEgi-14" target="4Qd8jiQq4enubxvdJEgi-15">
          <mxGeometry relative="1" as="geometry" />
        </mxCell>
        <mxCell id="4Qd8jiQq4enubxvdJEgi-50" value="V" style="edgeLabel;html=1;align=center;verticalAlign=middle;resizable=0;points=[];" vertex="1" connectable="0" parent="4Qd8jiQq4enubxvdJEgi-17">
          <mxGeometry x="0.2" y="2" relative="1" as="geometry">
            <mxPoint x="-1" y="-2" as="offset" />
          </mxGeometry>
        </mxCell>
        <mxCell id="4Qd8jiQq4enubxvdJEgi-18" style="edgeStyle=orthogonalEdgeStyle;rounded=0;orthogonalLoop=1;jettySize=auto;html=1;exitX=0;exitY=0.5;exitDx=0;exitDy=0;" edge="1" parent="1" source="4Qd8jiQq4enubxvdJEgi-14" target="4Qd8jiQq4enubxvdJEgi-16">
          <mxGeometry relative="1" as="geometry" />
        </mxCell>
        <mxCell id="4Qd8jiQq4enubxvdJEgi-51" value="F" style="edgeLabel;html=1;align=center;verticalAlign=middle;resizable=0;points=[];" vertex="1" connectable="0" parent="4Qd8jiQq4enubxvdJEgi-18">
          <mxGeometry x="0.3443" y="-4" relative="1" as="geometry">
            <mxPoint x="4" y="-4" as="offset" />
          </mxGeometry>
        </mxCell>
        <mxCell id="4Qd8jiQq4enubxvdJEgi-14" value="&lt;br&gt;&lt;div style=&quot;color: #3b3b3b;background-color: #ffffff;font-family: Consolas, &#39;Courier New&#39;, monospace;font-weight: normal;font-size: 14px;line-height: 19px;white-space: pre;&quot;&gt;&lt;div&gt;&lt;span style=&quot;color: #3b3b3b;&quot;&gt;caracter &lt;/span&gt;&lt;span style=&quot;color: #000000;&quot;&gt;=&lt;/span&gt;&lt;span style=&quot;color: #3b3b3b;&quot;&gt; &lt;/span&gt;&lt;span style=&quot;color: #a31515;&quot;&gt;&#39; &#39;&lt;/span&gt;&lt;/div&gt;&lt;/div&gt;&lt;div&gt;&lt;br/&gt;&lt;/div&gt;" style="rhombus;whiteSpace=wrap;html=1;" vertex="1" parent="1">
          <mxGeometry x="496" y="850" width="156" height="80" as="geometry" />
        </mxCell>
        <mxCell id="4Qd8jiQq4enubxvdJEgi-53" style="edgeStyle=orthogonalEdgeStyle;rounded=0;orthogonalLoop=1;jettySize=auto;html=1;exitX=0.5;exitY=1;exitDx=0;exitDy=0;" edge="1" parent="1" source="4Qd8jiQq4enubxvdJEgi-15">
          <mxGeometry relative="1" as="geometry">
            <mxPoint x="712" y="1040" as="targetPoint" />
          </mxGeometry>
        </mxCell>
        <mxCell id="4Qd8jiQq4enubxvdJEgi-15" value="&#xa;&lt;div style=&quot;color: #3b3b3b;background-color: #ffffff;font-family: Consolas, &#39;Courier New&#39;, monospace;font-weight: normal;font-size: 14px;line-height: 19px;white-space: pre;&quot;&gt;&lt;div&gt;&lt;span style=&quot;color: #3b3b3b;&quot;&gt;word1 &lt;/span&gt;&lt;span style=&quot;color: #000000;&quot;&gt;=&lt;/span&gt;&lt;span style=&quot;color: #3b3b3b;&quot;&gt; word1&lt;/span&gt;&lt;/div&gt;&lt;/div&gt;&#xa;&#xa;" style="rounded=0;whiteSpace=wrap;html=1;" vertex="1" parent="1">
          <mxGeometry x="652" y="930" width="120" height="60" as="geometry" />
        </mxCell>
        <mxCell id="4Qd8jiQq4enubxvdJEgi-52" style="edgeStyle=orthogonalEdgeStyle;rounded=0;orthogonalLoop=1;jettySize=auto;html=1;exitX=0.5;exitY=1;exitDx=0;exitDy=0;entryX=0.5;entryY=0;entryDx=0;entryDy=0;" edge="1" parent="1" source="4Qd8jiQq4enubxvdJEgi-16" target="4Qd8jiQq4enubxvdJEgi-12">
          <mxGeometry relative="1" as="geometry">
            <Array as="points">
              <mxPoint x="414" y="1040" />
              <mxPoint x="800" y="1040" />
              <mxPoint x="800" y="630" />
              <mxPoint x="414" y="630" />
            </Array>
          </mxGeometry>
        </mxCell>
        <mxCell id="4Qd8jiQq4enubxvdJEgi-54" value="I = I +1" style="edgeLabel;html=1;align=center;verticalAlign=middle;resizable=0;points=[];" vertex="1" connectable="0" parent="4Qd8jiQq4enubxvdJEgi-52">
          <mxGeometry x="0.0799" y="3" relative="1" as="geometry">
            <mxPoint as="offset" />
          </mxGeometry>
        </mxCell>
        <mxCell id="4Qd8jiQq4enubxvdJEgi-16" value="&#xa;&lt;div style=&quot;color: #3b3b3b;background-color: #ffffff;font-family: Consolas, &#39;Courier New&#39;, monospace;font-weight: normal;font-size: 14px;line-height: 19px;white-space: pre;&quot;&gt;&lt;div&gt;&lt;span style=&quot;color: #3b3b3b;&quot;&gt;word1 &lt;/span&gt;&lt;span style=&quot;color: #000000;&quot;&gt;=&lt;/span&gt;&lt;span style=&quot;color: #3b3b3b;&quot;&gt; word1 &lt;/span&gt;&lt;span style=&quot;color: #000000;&quot;&gt;+&lt;/span&gt;&lt;span style=&quot;color: #3b3b3b;&quot;&gt; caracter&lt;/span&gt;&lt;/div&gt;&lt;/div&gt;&#xa;&#xa;" style="rounded=0;whiteSpace=wrap;html=1;" vertex="1" parent="1">
          <mxGeometry x="312" y="930" width="204" height="60" as="geometry" />
        </mxCell>
        <mxCell id="4Qd8jiQq4enubxvdJEgi-34" value="" style="edgeStyle=orthogonalEdgeStyle;rounded=0;orthogonalLoop=1;jettySize=auto;html=1;" edge="1" parent="1" source="4Qd8jiQq4enubxvdJEgi-22" target="4Qd8jiQq4enubxvdJEgi-24">
          <mxGeometry relative="1" as="geometry" />
        </mxCell>
        <mxCell id="4Qd8jiQq4enubxvdJEgi-22" value="definir&amp;nbsp;&lt;span style=&quot;background-color: rgb(255, 255, 255); color: rgb(59, 59, 59); font-family: Consolas, &amp;quot;Courier New&amp;quot;, monospace; font-size: 14px; white-space: pre;&quot;&gt;i &lt;/span&gt;&lt;span style=&quot;font-family: Consolas, &amp;quot;Courier New&amp;quot;, monospace; font-size: 14px; white-space: pre;&quot;&gt;=&lt;/span&gt;&lt;span style=&quot;background-color: rgb(255, 255, 255); color: rgb(59, 59, 59); font-family: Consolas, &amp;quot;Courier New&amp;quot;, monospace; font-size: 14px; white-space: pre;&quot;&gt; &lt;/span&gt;&lt;span style=&quot;font-family: Consolas, &amp;quot;Courier New&amp;quot;, monospace; font-size: 14px; white-space: pre; color: rgb(0, 16, 128);&quot;&gt;n1&lt;/span&gt;&lt;span style=&quot;background-color: rgb(255, 255, 255); color: rgb(59, 59, 59); font-family: Consolas, &amp;quot;Courier New&amp;quot;, monospace; font-size: 14px; white-space: pre;&quot;&gt;.&lt;/span&gt;&lt;span style=&quot;font-family: Consolas, &amp;quot;Courier New&amp;quot;, monospace; font-size: 14px; white-space: pre; color: rgb(121, 94, 38);&quot;&gt;size&lt;/span&gt;&lt;span style=&quot;background-color: rgb(255, 255, 255); color: rgb(59, 59, 59); font-family: Consolas, &amp;quot;Courier New&amp;quot;, monospace; font-size: 14px; white-space: pre;&quot;&gt;() &lt;/span&gt;&lt;span style=&quot;font-family: Consolas, &amp;quot;Courier New&amp;quot;, monospace; font-size: 14px; white-space: pre;&quot;&gt;-&lt;/span&gt;&lt;span style=&quot;background-color: rgb(255, 255, 255); color: rgb(59, 59, 59); font-family: Consolas, &amp;quot;Courier New&amp;quot;, monospace; font-size: 14px; white-space: pre;&quot;&gt; &lt;/span&gt;&lt;span style=&quot;font-family: Consolas, &amp;quot;Courier New&amp;quot;, monospace; font-size: 14px; white-space: pre; color: rgb(9, 134, 88);&quot;&gt;1&lt;/span&gt;" style="rounded=0;whiteSpace=wrap;html=1;" vertex="1" parent="1">
          <mxGeometry x="-30" y="760" width="200" height="60" as="geometry" />
        </mxCell>
        <mxCell id="4Qd8jiQq4enubxvdJEgi-28" style="edgeStyle=orthogonalEdgeStyle;rounded=0;orthogonalLoop=1;jettySize=auto;html=1;exitX=1;exitY=0.5;exitDx=0;exitDy=0;" edge="1" parent="1" source="4Qd8jiQq4enubxvdJEgi-23" target="4Qd8jiQq4enubxvdJEgi-24">
          <mxGeometry relative="1" as="geometry" />
        </mxCell>
        <mxCell id="4Qd8jiQq4enubxvdJEgi-33" value="V" style="edgeLabel;html=1;align=center;verticalAlign=middle;resizable=0;points=[];" vertex="1" connectable="0" parent="4Qd8jiQq4enubxvdJEgi-28">
          <mxGeometry x="0.2545" relative="1" as="geometry">
            <mxPoint as="offset" />
          </mxGeometry>
        </mxCell>
        <mxCell id="4Qd8jiQq4enubxvdJEgi-37" style="edgeStyle=orthogonalEdgeStyle;rounded=0;orthogonalLoop=1;jettySize=auto;html=1;exitX=0;exitY=0.5;exitDx=0;exitDy=0;entryX=0.5;entryY=0;entryDx=0;entryDy=0;" edge="1" parent="1" source="4Qd8jiQq4enubxvdJEgi-23" target="4Qd8jiQq4enubxvdJEgi-36">
          <mxGeometry relative="1" as="geometry" />
        </mxCell>
        <mxCell id="4Qd8jiQq4enubxvdJEgi-38" value="F" style="edgeLabel;html=1;align=center;verticalAlign=middle;resizable=0;points=[];" vertex="1" connectable="0" parent="4Qd8jiQq4enubxvdJEgi-37">
          <mxGeometry x="0.7926" y="1" relative="1" as="geometry">
            <mxPoint as="offset" />
          </mxGeometry>
        </mxCell>
        <mxCell id="4Qd8jiQq4enubxvdJEgi-23" value="&#xa;&lt;div style=&quot;color: #3b3b3b;background-color: #ffffff;font-family: Consolas, &#39;Courier New&#39;, monospace;font-weight: normal;font-size: 14px;line-height: 19px;white-space: pre;&quot;&gt;&lt;div&gt;&lt;span style=&quot;color: #3b3b3b;&quot;&gt;i &lt;/span&gt;&lt;span style=&quot;color: #000000;&quot;&gt;&amp;gt;=&lt;/span&gt;&lt;span style=&quot;color: #3b3b3b;&quot;&gt; &lt;/span&gt;&lt;span style=&quot;color: #098658;&quot;&gt;0&lt;/span&gt;&lt;/div&gt;&lt;/div&gt;&#xa;&#xa;" style="rhombus;whiteSpace=wrap;html=1;" vertex="1" parent="1">
          <mxGeometry x="30" y="840" width="80" height="80" as="geometry" />
        </mxCell>
        <mxCell id="4Qd8jiQq4enubxvdJEgi-29" value="" style="edgeStyle=orthogonalEdgeStyle;rounded=0;orthogonalLoop=1;jettySize=auto;html=1;" edge="1" parent="1" source="4Qd8jiQq4enubxvdJEgi-24" target="4Qd8jiQq4enubxvdJEgi-27">
          <mxGeometry relative="1" as="geometry" />
        </mxCell>
        <mxCell id="4Qd8jiQq4enubxvdJEgi-32" value="F" style="edgeLabel;html=1;align=center;verticalAlign=middle;resizable=0;points=[];" vertex="1" connectable="0" parent="4Qd8jiQq4enubxvdJEgi-29">
          <mxGeometry x="0.5405" y="-3" relative="1" as="geometry">
            <mxPoint x="-1" y="1" as="offset" />
          </mxGeometry>
        </mxCell>
        <mxCell id="4Qd8jiQq4enubxvdJEgi-24" value="definir char&amp;nbsp;&lt;span style=&quot;background-color: rgb(255, 255, 255); color: rgb(59, 59, 59); font-family: Consolas, &amp;quot;Courier New&amp;quot;, monospace; font-size: 14px; white-space: pre;&quot;&gt;caracter2 &lt;/span&gt;&lt;span style=&quot;font-family: Consolas, &amp;quot;Courier New&amp;quot;, monospace; font-size: 14px; white-space: pre;&quot;&gt;=&lt;/span&gt;&lt;span style=&quot;background-color: rgb(255, 255, 255); color: rgb(59, 59, 59); font-family: Consolas, &amp;quot;Courier New&amp;quot;, monospace; font-size: 14px; white-space: pre;&quot;&gt; &lt;/span&gt;&lt;span style=&quot;font-family: Consolas, &amp;quot;Courier New&amp;quot;, monospace; font-size: 14px; white-space: pre; color: rgb(0, 16, 128);&quot;&gt;n1&lt;/span&gt;&lt;span style=&quot;background-color: rgb(255, 255, 255); color: rgb(59, 59, 59); font-family: Consolas, &amp;quot;Courier New&amp;quot;, monospace; font-size: 14px; white-space: pre;&quot;&gt;[i]&lt;/span&gt;" style="rounded=0;whiteSpace=wrap;html=1;" vertex="1" parent="1">
          <mxGeometry x="50" y="930" width="240" height="60" as="geometry" />
        </mxCell>
        <mxCell id="4Qd8jiQq4enubxvdJEgi-30" style="edgeStyle=orthogonalEdgeStyle;rounded=0;orthogonalLoop=1;jettySize=auto;html=1;exitX=1;exitY=0.5;exitDx=0;exitDy=0;entryX=0.5;entryY=0;entryDx=0;entryDy=0;" edge="1" parent="1" source="4Qd8jiQq4enubxvdJEgi-25" target="4Qd8jiQq4enubxvdJEgi-26">
          <mxGeometry relative="1" as="geometry" />
        </mxCell>
        <mxCell id="4Qd8jiQq4enubxvdJEgi-31" value="V" style="edgeLabel;html=1;align=center;verticalAlign=middle;resizable=0;points=[];" vertex="1" connectable="0" parent="4Qd8jiQq4enubxvdJEgi-30">
          <mxGeometry x="0.3846" y="4" relative="1" as="geometry">
            <mxPoint x="-3" y="-4" as="offset" />
          </mxGeometry>
        </mxCell>
        <mxCell id="4Qd8jiQq4enubxvdJEgi-25" value="&lt;br&gt;&lt;div style=&quot;color: #3b3b3b;background-color: #ffffff;font-family: Consolas, &#39;Courier New&#39;, monospace;font-weight: normal;font-size: 14px;line-height: 19px;white-space: pre;&quot;&gt;&lt;div&gt;&lt;span style=&quot;color: #3b3b3b;&quot;&gt;caracter2 &lt;/span&gt;&lt;span style=&quot;color: #000000;&quot;&gt;=&lt;/span&gt;&lt;span style=&quot;color: #3b3b3b;&quot;&gt; &lt;/span&gt;&lt;span style=&quot;color: #a31515;&quot;&gt;&#39; &#39;&lt;/span&gt;&lt;/div&gt;&lt;/div&gt;&lt;div&gt;&lt;br/&gt;&lt;/div&gt;" style="rhombus;whiteSpace=wrap;html=1;" vertex="1" parent="1">
          <mxGeometry x="90" y="1020" width="160" height="80" as="geometry" />
        </mxCell>
        <mxCell id="4Qd8jiQq4enubxvdJEgi-56" style="edgeStyle=orthogonalEdgeStyle;rounded=0;orthogonalLoop=1;jettySize=auto;html=1;exitX=0.5;exitY=1;exitDx=0;exitDy=0;" edge="1" parent="1" source="4Qd8jiQq4enubxvdJEgi-26">
          <mxGeometry relative="1" as="geometry">
            <mxPoint x="340" y="1210" as="targetPoint" />
          </mxGeometry>
        </mxCell>
        <mxCell id="4Qd8jiQq4enubxvdJEgi-26" value="&#xa;&lt;div style=&quot;color: #3b3b3b;background-color: #ffffff;font-family: Consolas, &#39;Courier New&#39;, monospace;font-weight: normal;font-size: 14px;line-height: 19px;white-space: pre;&quot;&gt;&lt;div&gt;&lt;span style=&quot;color: #3b3b3b;&quot;&gt;word2 &lt;/span&gt;&lt;span style=&quot;color: #000000;&quot;&gt;=&lt;/span&gt;&lt;span style=&quot;color: #3b3b3b;&quot;&gt; word2&lt;/span&gt;&lt;/div&gt;&lt;/div&gt;&#xa;&#xa;" style="rounded=0;whiteSpace=wrap;html=1;" vertex="1" parent="1">
          <mxGeometry x="280" y="1100" width="120" height="60" as="geometry" />
        </mxCell>
        <mxCell id="4Qd8jiQq4enubxvdJEgi-55" style="edgeStyle=orthogonalEdgeStyle;rounded=0;orthogonalLoop=1;jettySize=auto;html=1;exitX=0.5;exitY=1;exitDx=0;exitDy=0;entryX=0.5;entryY=0;entryDx=0;entryDy=0;" edge="1" parent="1" source="4Qd8jiQq4enubxvdJEgi-27" target="4Qd8jiQq4enubxvdJEgi-23">
          <mxGeometry relative="1" as="geometry">
            <Array as="points">
              <mxPoint x="30" y="1210" />
              <mxPoint x="410" y="1210" />
              <mxPoint x="410" y="1015" />
              <mxPoint x="300" y="1015" />
              <mxPoint x="300" y="820" />
              <mxPoint x="70" y="820" />
            </Array>
          </mxGeometry>
        </mxCell>
        <mxCell id="4Qd8jiQq4enubxvdJEgi-57" value="i = i - 1" style="edgeLabel;html=1;align=center;verticalAlign=middle;resizable=0;points=[];" vertex="1" connectable="0" parent="4Qd8jiQq4enubxvdJEgi-55">
          <mxGeometry x="-0.0606" y="-3" relative="1" as="geometry">
            <mxPoint as="offset" />
          </mxGeometry>
        </mxCell>
        <mxCell id="4Qd8jiQq4enubxvdJEgi-27" value="&#xa;&lt;div style=&quot;color: #3b3b3b;background-color: #ffffff;font-family: Consolas, &#39;Courier New&#39;, monospace;font-weight: normal;font-size: 14px;line-height: 19px;white-space: pre;&quot;&gt;&lt;div&gt;&lt;span style=&quot;color: #3b3b3b;&quot;&gt;word2 &lt;/span&gt;&lt;span style=&quot;color: #000000;&quot;&gt;=&lt;/span&gt;&lt;span style=&quot;color: #3b3b3b;&quot;&gt; word2 &lt;/span&gt;&lt;span style=&quot;color: #000000;&quot;&gt;+&lt;/span&gt;&lt;span style=&quot;color: #3b3b3b;&quot;&gt; caracter2&lt;/span&gt;&lt;/div&gt;&lt;/div&gt;&#xa;&#xa;" style="rounded=0;whiteSpace=wrap;html=1;" vertex="1" parent="1">
          <mxGeometry x="-80" y="1109" width="220" height="60" as="geometry" />
        </mxCell>
        <mxCell id="4Qd8jiQq4enubxvdJEgi-40" style="edgeStyle=orthogonalEdgeStyle;rounded=0;orthogonalLoop=1;jettySize=auto;html=1;exitX=1;exitY=0.5;exitDx=0;exitDy=0;" edge="1" parent="1" source="4Qd8jiQq4enubxvdJEgi-36" target="4Qd8jiQq4enubxvdJEgi-39">
          <mxGeometry relative="1" as="geometry" />
        </mxCell>
        <mxCell id="4Qd8jiQq4enubxvdJEgi-42" style="edgeStyle=orthogonalEdgeStyle;rounded=0;orthogonalLoop=1;jettySize=auto;html=1;exitX=0;exitY=0.5;exitDx=0;exitDy=0;" edge="1" parent="1" source="4Qd8jiQq4enubxvdJEgi-36" target="4Qd8jiQq4enubxvdJEgi-41">
          <mxGeometry relative="1" as="geometry" />
        </mxCell>
        <mxCell id="4Qd8jiQq4enubxvdJEgi-36" value="&lt;br&gt;&lt;div style=&quot;color: #3b3b3b;background-color: #ffffff;font-family: Consolas, &#39;Courier New&#39;, monospace;font-weight: normal;font-size: 14px;line-height: 19px;white-space: pre;&quot;&gt;&lt;div&gt;&lt;span style=&quot;color: #3b3b3b;&quot;&gt;&amp;nbsp;word1 &lt;/span&gt;&lt;span style=&quot;color: #000000;&quot;&gt;=&lt;/span&gt;&lt;span style=&quot;color: #3b3b3b;&quot;&gt; word2&lt;/span&gt;&lt;/div&gt;&lt;/div&gt;&lt;div&gt;&lt;br/&gt;&lt;/div&gt;" style="rhombus;whiteSpace=wrap;html=1;" vertex="1" parent="1">
          <mxGeometry x="-280" y="910" width="140" height="80" as="geometry" />
        </mxCell>
        <mxCell id="4Qd8jiQq4enubxvdJEgi-45" style="edgeStyle=orthogonalEdgeStyle;rounded=0;orthogonalLoop=1;jettySize=auto;html=1;exitX=0.5;exitY=1;exitDx=0;exitDy=0;" edge="1" parent="1" source="4Qd8jiQq4enubxvdJEgi-39" target="4Qd8jiQq4enubxvdJEgi-43">
          <mxGeometry relative="1" as="geometry" />
        </mxCell>
        <mxCell id="4Qd8jiQq4enubxvdJEgi-39" value="&#xa;&lt;div style=&quot;color: #3b3b3b;background-color: #ffffff;font-family: Consolas, &#39;Courier New&#39;, monospace;font-weight: normal;font-size: 14px;line-height: 19px;white-space: pre;&quot;&gt;&lt;div&gt;&lt;span style=&quot;color: #3b3b3b;&quot;&gt;result &lt;/span&gt;&lt;span style=&quot;color: #000000;&quot;&gt;=&lt;/span&gt;&lt;span style=&quot;color: #3b3b3b;&quot;&gt; &lt;/span&gt;&lt;span style=&quot;color: #a31515;&quot;&gt;&quot;Es palindrome&quot;&lt;/span&gt;&lt;/div&gt;&lt;/div&gt;&#xa;&#xa;" style="rounded=0;whiteSpace=wrap;html=1;" vertex="1" parent="1">
          <mxGeometry x="-200" y="1000" width="210" height="60" as="geometry" />
        </mxCell>
        <mxCell id="4Qd8jiQq4enubxvdJEgi-44" style="edgeStyle=orthogonalEdgeStyle;rounded=0;orthogonalLoop=1;jettySize=auto;html=1;exitX=0.5;exitY=1;exitDx=0;exitDy=0;" edge="1" parent="1" source="4Qd8jiQq4enubxvdJEgi-41" target="4Qd8jiQq4enubxvdJEgi-43">
          <mxGeometry relative="1" as="geometry" />
        </mxCell>
        <mxCell id="4Qd8jiQq4enubxvdJEgi-41" value="&#xa;&lt;div style=&quot;color: #3b3b3b;background-color: #ffffff;font-family: Consolas, &#39;Courier New&#39;, monospace;font-weight: normal;font-size: 14px;line-height: 19px;white-space: pre;&quot;&gt;&lt;div&gt;&lt;span style=&quot;color: #3b3b3b;&quot;&gt;result &lt;/span&gt;&lt;span style=&quot;color: #000000;&quot;&gt;=&lt;/span&gt;&lt;span style=&quot;color: #3b3b3b;&quot;&gt; &lt;/span&gt;&lt;span style=&quot;color: #a31515;&quot;&gt;&quot;No es palindrome&quot;&lt;/span&gt;&lt;/div&gt;&lt;/div&gt;&#xa;&#xa;" style="rounded=0;whiteSpace=wrap;html=1;" vertex="1" parent="1">
          <mxGeometry x="-500" y="1000" width="220" height="60" as="geometry" />
        </mxCell>
        <mxCell id="4Qd8jiQq4enubxvdJEgi-47" value="" style="edgeStyle=orthogonalEdgeStyle;rounded=0;orthogonalLoop=1;jettySize=auto;html=1;" edge="1" parent="1" source="4Qd8jiQq4enubxvdJEgi-43" target="4Qd8jiQq4enubxvdJEgi-46">
          <mxGeometry relative="1" as="geometry" />
        </mxCell>
        <mxCell id="4Qd8jiQq4enubxvdJEgi-43" value="retornar resut" style="shape=parallelogram;perimeter=parallelogramPerimeter;whiteSpace=wrap;html=1;fixedSize=1;" vertex="1" parent="1">
          <mxGeometry x="-300" y="1109" width="120" height="60" as="geometry" />
        </mxCell>
        <mxCell id="4Qd8jiQq4enubxvdJEgi-46" value="FinAlgoritmo" style="ellipse;whiteSpace=wrap;html=1;" vertex="1" parent="1">
          <mxGeometry x="-300" y="1200" width="120" height="80" as="geometry" />
        </mxCell>
      </root>
    </mxGraphModel>
  </diagram>
</mxfile>
